<svg width="27" height="26" viewBox="0 0 27 26" fill="none" xmlns="http://www.w3.org/2000/svg">
<path d="M25.548 1.04299C25.2911 0.838576 24.9964 0.686769 24.6808 0.59624C24.3652 0.505712 24.0349 0.478235 23.7087 0.515379C23.3824 0.552523 23.0667 0.65356 22.7796 0.812721C22.4924 0.971881 22.2394 1.18605 22.035 1.44299L12 14.067L8.492 9.65299C8.07932 9.13383 7.47731 8.79987 6.8184 8.72457C6.15949 8.64928 5.49766 8.83882 4.9785 9.25149C4.45934 9.66417 4.12538 10.2662 4.05008 10.9251C3.97478 11.584 4.16432 12.2458 4.577 12.765L10.042 19.64C10.516 20.237 11.237 20.583 11.999 20.583C12.761 20.583 13.481 20.233 13.956 19.639L25.95 4.55499C26.81 3.47499 26.63 1.90199 25.548 1.04299ZM20.5 22.5H3.5V5.49999H16.256L18.641 2.49999H2C1.17 2.49999 0.5 3.16999 0.5 3.99999V24C0.5 24.828 1.17 25.5 2 25.5H22C22.3978 25.5 22.7794 25.342 23.0607 25.0607C23.342 24.7793 23.5 24.3978 23.5 24V10.85L20.5 14.624V22.5Z" fill="#0299DE"/>
</svg>
